<svg width="100%" height="100%" viewBox="0 0 3234 2884" version="1.1"
    xmlns="http://www.w3.org/2000/svg" xmlns:xlink="http://www.w3.org/1999/xlink"
    xml:space="preserve" xmlns:serif="http://www.serif.com/"
    style="fill-rule:evenodd;clip-rule:evenodd;stroke-linejoin:round;stroke-miterlimit:2;"><g><path d="M1536.17,348.55c-8.058,0.9 -35.833,6.333 -62.083,12.15c-252.084,55.833 -451.304,223.004 -542.613,455.312l-15.72,40l-52.501,2.838c-64.166,3.466 -75.383,4.983 -119.166,16.091c-79.167,20.088 -149.096,52.775 -208.334,97.388c-226.02,170.217 -308.958,461.6 -203.37,714.516c49.225,117.917 131.625,213.151 242.12,279.834l23.75,14.333l1.4,183.334c1.567,204.999 0.509,197.045 33.663,252.916c21.646,36.479 59.104,72.013 96.604,91.646c58.329,30.533 -9.583,28.354 883.75,28.354c895.417,0 822.958,2.425 888.75,-29.746c65.409,-31.979 116.959,-99.004 129.35,-168.17c2.642,-14.759 4.4,-91.459 4.4,-191.876l0,-167.291l40.417,-25.229c134.258,-83.8 227.158,-221.438 262.229,-388.521c10.15,-48.354 10.046,-149.167 -0.213,-206.25c-15.199,-84.584 -57.541,-185.113 -108.458,-257.5c-47.854,-68.038 -138.558,-143.754 -219.808,-183.496c-84.159,-41.163 -140.834,-55.187 -238.333,-58.971l-54.584,-2.116l-19.379,-47.917c-38.933,-96.25 -86.188,-168.25 -157.508,-240c-119.146,-119.859 -255.196,-190.125 -418.946,-216.375c-47.084,-7.546 -141.004,-10.208 -185.417,-5.254Zm176.25,158.075c105.417,19.929 234.408,90.746 317.633,174.387c74.796,75.167 122.98,165 149.742,279.167c12.054,51.421 13.458,52.083 110.959,52.083c118.75,0 177.204,12.458 259.166,55.238c90.346,47.158 163.529,128.929 204.138,228.096c24.125,58.916 29.983,92.499 29.787,170.833c-0.158,62.5 -1.212,72.158 -11.583,106.25c-24.467,80.416 -75.583,164.579 -121.092,199.366l-15,11.467l0,-80.833c0,-70 -1.112,-84.075 -8.292,-105c-20.8,-60.6 -77.541,-102.083 -139.625,-102.083l-27.083,-0l0,-56.667c0,-67.084 -4.375,-87.188 -23.954,-110c-25.979,-30.271 -28.546,-30.879 -140.629,-33.279l-100,-2.138l-2.633,-32.083c-4.621,-56.25 -31.934,-97.234 -81.534,-122.35l-24.167,-12.233l-464.375,-1.042c-459.999,-1.034 -464.616,-0.963 -490.208,7.504c-53.721,17.775 -88.829,65.621 -93.096,126.871l-2.321,33.333l-204.166,4.167l-19.375,13.542c-13.509,9.441 -22.779,20.416 -30.625,36.249c-10.488,21.171 -11.292,26.875 -11.875,84.375l-0.625,61.667l-31.25,2.229c-59.167,4.229 -109.696,39.159 -129.379,89.438c-8.796,22.467 -9.955,33.541 -11.455,109.375c-1.3,65.833 -2.854,84.375 -7.083,84.375c-7.371,-0 -57.617,-54.584 -78.629,-85.417c-19.388,-28.45 -39.313,-73.75 -53.325,-121.25c-8.713,-29.537 -9.667,-40.833 -9.296,-110c0.375,-69.583 1.488,-81.137 11.421,-118.75c38.283,-145 149.1,-262.121 293.579,-310.279c49.671,-16.558 87.917,-20.971 181.667,-20.971c102.083,0 101.604,0.283 116.783,-69.583c7.604,-35 24.083,-82.421 38.804,-111.667c11.325,-22.5 46.617,-81.991 50.663,-85.396c1.404,-1.183 7.566,-9.604 14.037,-19.187c12.492,-18.5 74.296,-79.963 101.796,-101.238c87.921,-68.016 204.583,-116.195 307.5,-126.991c27.775,-2.913 110.417,1.891 145,8.425Zm321.667,778.345c7.346,7.917 14.175,18.68 15.208,23.959c1.033,5.271 1.125,98.125 0.208,206.458l-1.666,196.875l-77.5,47.413c-139.167,85.141 -315.021,190.875 -330.834,198.912c-8.333,4.238 -18.862,7.842 -22.916,7.842c-6.917,-0 -374.167,-217.204 -416.667,-246.429l-17.917,-12.321l0,-408.75l14.167,-14.167l14.167,-14.166l810.416,-0l13.334,14.374Zm-993.75,156.459l-0,179.583l-20,-11.421c-63.334,-36.154 -91.375,-53.02 -97.917,-58.891c-5.846,-5.246 -7.083,-13.855 -7.083,-49.271c-0,-41.25 0.429,-43.25 11.041,-51.459c9.838,-7.608 16.667,-8.541 62.5,-8.541l51.459,-0Zm1266.67,8.333c7.296,7.296 8.334,13.959 8.334,53.542l-0,45.208l-60.417,35.625l-60.417,35.625l0,-178.333l52.084,-0c46.666,-0 52.95,0.867 60.416,8.333Zm-1494.58,206.938c16.754,8.666 117.083,68.9 207.083,124.32c83.805,51.609 362.5,222.321 480.417,294.275c62.083,37.884 88.533,47.067 127.5,44.271c36.433,-2.612 63.333,-15.321 160.833,-75.975c43.75,-27.216 112.721,-70.033 154.167,-95.704c41.25,-25.554 85.313,-52.741 97.917,-60.421c37.887,-23.083 143.75,-88.179 210.416,-129.387c184.584,-114.1 193.03,-117.859 216.251,-96.296l10.833,10.062l-0,630.001l-9.804,20.833c-11.567,24.583 -36.925,48.829 -59.363,56.754c-13.537,4.787 -145.833,5.746 -793.333,5.746l-777.084,-0l-22.083,-10c-12.083,-5.475 -28.362,-17.359 -35.95,-26.25c-27.483,-32.204 -27.383,-30.834 -27.383,-367.084c-0,-213.333 1.387,-305.57 4.708,-312.916c8.521,-18.863 31.958,-24.083 54.875,-12.229Z" style="fill:#3e3e3e;fill-rule:nonzero;"/><path d="M1531.58,642.32c-25.417,21.642 -27.929,50.763 -6.25,72.442l14.166,14.167l69.167,-0c78.75,-0 90.513,-3.217 100.684,-27.5c7.504,-17.917 7.337,-24.521 -1.055,-42.084c-11.2,-23.433 -21.712,-26.249 -97.962,-26.249c-64.167,-0 -68.513,0.508 -78.75,9.224Z" style="fill:#3e3e3e;fill-rule:nonzero;"/><path d="M1834.5,712.733c-14.333,3.75 -26.325,14.113 -34.175,29.529c-7.558,14.846 -7.174,30 1.176,46.25c11.983,23.334 87.799,122.171 99.666,129.934c35.375,23.137 91.133,-20.767 77.171,-60.767c-5.675,-16.25 -89.712,-130.346 -101.754,-138.146c-12.329,-7.992 -27.917,-10.508 -42.084,-6.8Z" style="fill:#3e3e3e;fill-rule:nonzero;"/><path d="M1340.33,1367.53c-23.729,12.121 -33.871,26.812 -36.338,52.646c-2.562,26.833 8.838,46.279 38.005,64.821c11.654,7.408 67.916,43.054 124.583,78.929c56.667,35.871 109.733,68.083 117.5,71.325c37.154,15.504 62.916,6.029 170.833,-62.808c39.167,-24.984 90.392,-57.613 114.583,-72.98c50.834,-32.295 62.5,-46.237 62.5,-74.704c0,-35.133 -27.916,-62.5 -63.75,-62.5c-22.424,0 -15.833,-3.771 -188.333,107.667c-22.917,14.804 -45.604,29.446 -50.416,32.541c-8.038,5.167 -17.501,0.18 -116.251,-61.25c-59.166,-36.808 -112.37,-69.337 -118.333,-72.349c-20.833,-10.526 -35.862,-10.896 -54.583,-1.338Z" style="fill:#3e3e3e;fill-rule:nonzero;"/></g></svg>